<?xml version="1.0" encoding="utf-8"?>
<!-- Generator: Adobe Illustrator 21.0.0, SVG Export Plug-In . SVG Version: 6.00 Build 0)  -->
<svg version="1.1" id="_x32_" xmlns="http://www.w3.org/2000/svg" xmlns:xlink="http://www.w3.org/1999/xlink" x="0px" y="0px"
	 viewBox="0 0 512 512" style="enable-background:new 0 0 512 512;" xml:space="preserve">
<style type="text/css">
	.st0{fill:#FFFFFF;}
</style>
<g>
	<path class="st0" d="M505.3,95.7c-5.4-6.2-13.4-9.8-21.8-9.8H115.7l-12.5-40.7l0,0C97.4,27.1,81.7,13.4,62.1,9.4l-45-9.1
		C9.5-1.2,2,3.3,0.3,10.5c-1.6,7.2,3.2,14.3,10.8,15.8l45,9.1c9.6,1.9,17.3,8.6,20.1,17.5l82.2,266.5c-1.9,0.8-3.6,1.7-5.4,2.7
		c-8.9,5-16,12-20.7,20.1c-4.6,7.8-7,16.6-7.2,25.6l0,0v1.4l0,0c0.2,7.1,1.8,13.9,4.6,20.1c4.5,9.9,11.8,18.3,21.2,24.3
		c9.3,6,20.6,9.4,32.7,9.4h264.2c7.8,0,14.1-6,14.1-13.3c0-7.4-6.3-13.3-14.1-13.3H183.5c-4.2,0-8.1-0.8-11.8-2.2
		c-5.4-2.2-10.1-5.8-13.3-10.4c-3.1-4.4-5-9.6-5.1-15.2c0.2-6.8,2.4-12.6,6.5-17.3c2.1-2.4,4.6-4.5,7.8-6.3c3.1-1.7,6.7-3.1,11-4
		l265.6-40.8c17.4-2.7,31.2-15.2,34.7-31.5l32.5-150.8l0,0c0.4-1.7,0.6-3.5,0.6-5.3C511.7,106.5,509.5,100.5,505.3,95.7z M451,263.4
		c-1.2,5.4-5.8,9.6-11.6,10.5l-253.8,39l-61.8-200.3h359.6l0,0L451,263.4z"/>
	<path class="st0" d="M216.1,444.8c-6.2-4-13.7-6.3-21.8-6.3c-5.4,0-10.5,1-15.2,2.9c-7,2.8-12.9,7.4-17.1,13.3
		c-4.2,5.9-6.7,13-6.6,20.5c0,5,1.1,9.9,3.1,14.3c3,6.6,7.9,12.2,14.1,16.2c6.2,4,13.8,6.3,21.8,6.3c5.3,0,10.5-1,15.1-2.9
		c7-2.8,12.9-7.4,17.1-13.3c4.2-5.9,6.7-13,6.7-20.6c0-5-1.1-9.9-3.1-14.3C227.2,454.3,222.3,448.7,216.1,444.8z M208.8,481
		c-1.2,2.6-3.2,4.9-5.7,6.5s-5.5,2.5-8.8,2.5c-2.2,0-4.2-0.4-6.1-1.2c-2.8-1.1-5.2-3-6.9-5.4s-2.7-5.2-2.7-8.3c0-2.1,0.4-4,1.2-5.8
		c1.2-2.6,3.2-4.9,5.7-6.5s5.5-2.5,8.8-2.5c2.2,0,4.2,0.4,6.1,1.2c2.8,1.1,5.2,3,6.9,5.4s2.7,5.2,2.7,8.3
		C210,477.3,209.6,479.2,208.8,481z"/>
	<path class="st0" d="M429.4,444.8c-6.2-4-13.8-6.3-21.8-6.3c-5.3,0-10.5,1-15.2,2.9c-7,2.8-12.9,7.4-17.1,13.3s-6.7,13-6.7,20.5
		c0,5,1.1,9.9,3.1,14.3c3,6.6,7.9,12.2,14.1,16.2s13.8,6.3,21.8,6.3c5.3,0,10.5-1,15.2-2.9c7-2.8,12.9-7.4,17.1-13.3
		s6.7-13,6.7-20.6c0-5-1.1-9.9-3.1-14.3C440.5,454.3,435.6,448.7,429.4,444.8z M422.2,481c-1.2,2.6-3.2,4.9-5.7,6.5
		s-5.5,2.5-8.8,2.5c-2.2,0-4.2-0.4-6.1-1.2c-2.8-1.1-5.2-3-6.9-5.4c-1.7-2.4-2.7-5.2-2.7-8.3c0-2.1,0.4-4,1.2-5.8
		c1.2-2.6,3.2-4.9,5.7-6.5s5.5-2.5,8.8-2.5c2.2,0,4.2,0.4,6.1,1.2c2.8,1.1,5.2,3,6.9,5.4c1.7,2.4,2.7,5.2,2.7,8.3
		C423.4,477.3,423,479.2,422.2,481z"/>
	<path class="st0" d="M206.9,142c-2.3-7.5-10.6-11.8-18.5-9.6s-12.5,10-10.2,17.5L216.9,275c2.3,7.5,10.6,11.8,18.5,9.6
		c7.9-2.2,12.5-10,10.1-17.5L206.9,142z"/>
	<path class="st0" d="M272.1,141.8c-2.3-7.5-10.6-11.8-18.5-9.6s-12.5,10-10.2,17.5l35.9,116c2.3,7.5,10.6,11.8,18.5,9.6
		c7.9-2.2,12.5-10,10.1-17.5L272.1,141.8z"/>
	<path class="st0" d="M337.5,141.5c-2.3-7.5-10.6-11.8-18.5-9.6s-12.5,10-10.2,17.5L342,256.6c2.3,7.5,10.6,11.8,18.5,9.6
		c7.9-2.2,12.5-10,10.1-17.5L337.5,141.5z"/>
	<path class="st0" d="M402.8,141.3c-2.3-7.5-10.6-11.8-18.5-9.6s-12.5,10-10.1,17.5l30.3,97.8c2.3,7.5,10.6,11.8,18.5,9.6
		c7.9-2.2,12.5-10,10.2-17.5L402.8,141.3z"/>
</g>
</svg>
