<?xml version="1.0" encoding="utf-8"?>
<!-- Generator: Adobe Illustrator 21.0.0, SVG Export Plug-In . SVG Version: 6.00 Build 0)  -->
<svg version="1.1" id="レイヤー_1" xmlns="http://www.w3.org/2000/svg" xmlns:xlink="http://www.w3.org/1999/xlink" x="0px"
	 y="0px" viewBox="0 0 283.5 283.5" style="enable-background:new 0 0 283.5 283.5;" xml:space="preserve">
<style type="text/css">
	.st0{fill:#F5A116;}
	.st1{fill:#FFFFFF;}
</style>
<g>
	<path class="st0" d="M283.5,226.8c0,31.2-25.5,56.7-56.7,56.7H56.7C25.5,283.5,0,257.9,0,226.8V56.7C0,25.5,25.5,0,56.7,0h170.1
		c31.2,0,56.7,25.5,56.7,56.7V226.8z"/>
</g>
<path class="st1" d="M248.2,141.7c0-13.5-9.8-25.4-23-28c-7.7-1.5-16.4-0.3-24.1,1.1c-8.7,1.5-17.2,4.2-25.2,7.8
	c15.2,4.7,30,11.2,43.8,19.1c-12.4,21.5-28.7,40.8-47.8,56.8c-4.6,3.8-9.3,7.4-14.1,10.9c-4.6,3.2-9.8,7.6-15,9.7
	c-1.7,0.7-2.4-0.2-4-1.2c-1.3-0.8-2.6-1.6-4-2.4c-2.6-1.6-5.2-3.4-7.7-5.1c-4.9-3.4-9.7-7-14.3-10.8c-9.4-7.7-18-16.2-26-25.4
	c-1.8-2.1-4.2-4.3-5.5-6.7c-1.5-2.8-1.1-7.8-1.3-11c-0.5-6.8-0.6-13.7-0.4-20.6c0.1-3.3,0.3-6.6,0.5-9.9c0.2-3.1,0-7.4,1.6-10.1
	c2.8-4.7,7.5-9,11.3-13c7.6-8.1,15.8-15.6,24.6-22.5c20.3-15.8,43.5-27.9,68.1-35.5c-37.6-17-82.5-10.2-113.6,16.7
	c-26,22.5-39.6,57.1-36.1,91.2c3.7,36.4,26.6,69.2,59.7,85c30.8,14.8,67.8,13.8,97.7-2.7c29.5-16.4,50-46.5,54.2-80
	C247.9,150.5,248.2,146.1,248.2,141.7z"/>
</svg>
