<?xml version="1.0" encoding="utf-8"?>
<!-- Generator: Adobe Illustrator 21.0.0, SVG Export Plug-In . SVG Version: 6.00 Build 0)  -->
<svg version="1.1" id="_x32_" xmlns="http://www.w3.org/2000/svg" xmlns:xlink="http://www.w3.org/1999/xlink" x="0px" y="0px"
	 viewBox="0 0 512 512" style="enable-background:new 0 0 512 512;" xml:space="preserve">
<style type="text/css">
	.st0{fill:#FFFFFF;}
</style>
<polygon class="st0" points="427.8,244.9 427.8,160.5 371.3,160.5 371.3,244.9 286.9,244.9 286.9,301.4 371.8,301.4 371.8,385.8 
	428.3,385.8 428.3,301.4 512.2,301.4 512.2,244.9 "/>
<path class="st0" d="M141,283.1c77.8,0,140.9-63.1,140.9-140.9C281.9,64.3,218.8,1.2,141,1.2C63.1,1.2,0,64.3,0,142.2
	C0,220,63.1,283.1,141,283.1z"/>
<path class="st0" d="M388.3,468.4C358.4,376.6,248.8,326.6,141,326.6c-49.2,0-98.8,10.4-141,30.5V512h396.5
	C395.7,497.7,393,483.1,388.3,468.4z"/>
</svg>
