<?xml version="1.0" encoding="utf-8"?>
<!-- Generator: Adobe Illustrator 21.0.0, SVG Export Plug-In . SVG Version: 6.00 Build 0)  -->
<svg version="1.2" baseProfile="tiny" id="Capa_1" xmlns="http://www.w3.org/2000/svg" xmlns:xlink="http://www.w3.org/1999/xlink"
	 x="0px" y="0px" viewBox="0 0 612 612" xml:space="preserve">
<g>
	<path fill="#FFFFFF" d="M536.3,229.5H382.5V75.7c0-41.8-33.9-75.7-75.7-75.7h-1.5c-41.8,0-75.7,33.9-75.7,75.7v153.8H75.7
		C33.9,229.5,0,263.4,0,305.2v1.5c0,41.8,33.9,75.7,75.7,75.7h153.8v153.8c0,41.8,33.9,75.7,75.7,75.7h1.5
		c41.8,0,75.7-33.9,75.7-75.7V382.5h153.8c41.8,0,75.7-33.9,75.7-75.7v-1.5C612,263.4,578.1,229.5,536.3,229.5z"/>
</g>
</svg>
