<?xml version="1.0" encoding="utf-8"?>
<!-- Generator: Adobe Illustrator 21.0.0, SVG Export Plug-In . SVG Version: 6.00 Build 0)  -->
<svg version="1.1" id="Layer_1" xmlns="http://www.w3.org/2000/svg" xmlns:xlink="http://www.w3.org/1999/xlink" x="0px" y="0px"
	 viewBox="0 0 100 100" style="enable-background:new 0 0 100 100;" xml:space="preserve">
<style type="text/css">
	.st0{fill:#FFFFFF;}
</style>
<g>
	<g>
		<rect x="52.4" y="37.3" class="st0" width="26" height="8.3"/>
	</g>
	<g>
		<rect x="34.7" y="37.3" class="st0" width="8.7" height="8.3"/>
	</g>
	<g>
		<rect x="52.4" y="54" class="st0" width="26" height="8.3"/>
	</g>
	<g>
		<rect x="34.7" y="54" class="st0" width="8.7" height="8.3"/>
	</g>
	<g>
		<rect x="52.4" y="20.7" class="st0" width="26" height="8.3"/>
	</g>
	<g>
		<rect x="34.7" y="20.7" class="st0" width="8.7" height="8.3"/>
	</g>
	<path class="st0" d="M95.7,0H17.3C15,0,13,2,13,4v70.7H4.3c-2.3,0-4.3,2-4.3,4c0,12,9.7,21.3,21.7,21.3h56.7
		c12,0,21.7-9.3,21.7-20.7V4C100,2,98,0,95.7,0z M91.4,79.4c0,7-6,12.7-13,12.7s-13-5.7-13-12.7c0-2.3-2-4-4.3-4H21.7V8.7h69.7V79.4
		z"/>
</g>
</svg>
